<svg xmlns="http://www.w3.org/2000/svg" viewBox="0 0 24 24"><defs><style>.cls-1{opacity:0;}.cls-2{fill:#fff;}.cls-3{fill:#222;}</style></defs><title>删除</title><g id="图层_2" data-name="图层 2"><g id="图层_1-2" data-name="图层 1"><g class="cls-1"><rect class="cls-2" width="24" height="24"/></g><path class="cls-3" d="M20.47,4h-5A.47.47,0,0,1,15,3.5h0a.5.5,0,0,0-.5-.5h-5a.5.5,0,0,0-.5.5H9A.47.47,0,0,1,8.53,4h-5A.52.52,0,0,0,3,4.39.5.5,0,0,0,3.5,5H5V20.5a.5.5,0,0,0,.5.5h13a.5.5,0,0,0,.5-.5V5h1.5A.5.5,0,0,0,21,4.39.52.52,0,0,0,20.47,4ZM18,20H6V5H18Z"/><rect class="cls-3" x="8.5" y="9" width="1" height="8" rx="0.5"/><rect class="cls-3" x="11.5" y="9" width="1" height="8" rx="0.5"/><rect class="cls-3" x="14.5" y="9" width="1" height="8" rx="0.5"/></g></g></svg>