<svg xmlns="http://www.w3.org/2000/svg" viewBox="0 0 20 20"><defs><style>.cls-1{opacity:0;}.cls-2{fill:#fff;}.cls-3{fill:#396ae2;}</style></defs><title>文件夹</title><g id="图层_2" data-name="图层 2"><g id="图层_1-2" data-name="图层 1"><g class="cls-1"><rect class="cls-2" width="20" height="20"/></g><path class="cls-3" d="M16.06,7.11h-.63l-.21-.83a1.44,1.44,0,0,0-1.4-1.09H9.61a.52.52,0,0,1-.29-.09L7.88,4A1.47,1.47,0,0,0,7,3.74H4A1.44,1.44,0,0,0,2.52,5.18v9.44a1.23,1.23,0,0,0,0,.2,1.45,1.45,0,0,0,1.44,1.44H14a1.45,1.45,0,0,0,1.37-1L17.42,9a1.26,1.26,0,0,0,.08-.47,1.45,1.45,0,0,0-1.44-1.44ZM4,4.7H7a.48.48,0,0,1,.29.1L8.75,5.87a1.47,1.47,0,0,0,.86.28h4.21a.49.49,0,0,1,.47.37l.14.59h-8A1.44,1.44,0,0,0,5.11,8L3.48,12.08V5.18A.49.49,0,0,1,4,4.7Zm12.54,4L14.42,15a.47.47,0,0,1-.45.35h-10a.48.48,0,0,1-.47-.44v-.22L6,8.39a.5.5,0,0,1,.45-.32h9.64a.46.46,0,0,1,.34.15.48.48,0,0,1,.14.34.4.4,0,0,1,0,.15Z"/></g></g></svg>