<svg xmlns="http://www.w3.org/2000/svg" viewBox="0 0 54 54"><defs><style>.cls-1{fill:none;}.cls-2{fill:#fff;}</style></defs><title>资源 24</title><g id="图层_2" data-name="图层 2"><g id="图层_1-2" data-name="图层 1"><rect class="cls-1" width="54" height="54"/><path class="cls-2" d="M27,1.59,7.27,7.86A1.76,1.76,0,0,0,6,9.56l.1,24.64,0,.29A17.31,17.31,0,0,0,11,42.75c3.11,3.06,10.72,7.06,14,8.76l1.12.59.37.21a.87.87,0,0,0,.8,0l.55-.28c1.89-.93,11.55-5.75,15.14-9.29a17.11,17.11,0,0,0,4.88-8.26L48,9.56a1.77,1.77,0,0,0-1.23-1.71Zm18.11,32.7A14.9,14.9,0,0,1,41,41c-2.92,2.88-10.83,7-13.71,8.44a.88.88,0,0,1-.82,0h0C23.58,47.85,15.8,43.76,13,41a15,15,0,0,1-4.07-6.67L8.79,10.8A.81.81,0,0,1,9.35,10l17.1-5.44a1.87,1.87,0,0,1,1.1,0L44.64,10a.8.8,0,0,1,.57.77l-.1,23.49ZM27.3,13.48a7.26,7.26,0,0,1,5.14,2.1,7.11,7.11,0,0,1,0,10.16,7.16,7.16,0,0,1-3.34,1.84v3h3a1.81,1.81,0,0,1,1.28.53,1.77,1.77,0,0,1,.53,1.27,1.82,1.82,0,0,1-1.82,1.8h-3l0,5a1.82,1.82,0,0,1-3.64,0l0-11.62a7.11,7.11,0,0,1-3.3-12,7.34,7.34,0,0,1,5.17-2.09Zm4.38,7.11a4.17,4.17,0,0,0-1.25-3,4.33,4.33,0,0,0-6.06,0,4.19,4.19,0,0,0,0,6,4.26,4.26,0,0,0,3,1.23,4.35,4.35,0,0,0,4.3-4.21Z"/></g></g></svg>