<svg xmlns="http://www.w3.org/2000/svg" viewBox="0 0 30 30"><defs><style>.cls-1{opacity:0;}.cls-2{fill:#fff;}.cls-3{fill:#b3b3b3;}</style></defs><title>资源 22</title><g id="图层_2" data-name="图层 2"><g id="图层_1-2" data-name="图层 1"><g class="cls-1"><rect class="cls-2" width="30" height="30"/></g><rect class="cls-3" x="14.11" y="16.98" width="1.79" height="4.46"/><path class="cls-3" d="M22.79,11.24H22V9.16a7,7,0,0,0-14,0v2.08H7.21a3,3,0,0,0-3,3v10a3,3,0,0,0,3,3H22.79a3,3,0,0,0,3-3v-10A3,3,0,0,0,22.79,11.24ZM9.87,9a5,5,0,0,1,5-5h.27a5,5,0,0,1,5,5v2.29H9.87ZM24.14,24.34A1.17,1.17,0,0,1,23,25.51H7a1.17,1.17,0,0,1-1.17-1.17V14.09A1.17,1.17,0,0,1,7,12.92H23a1.17,1.17,0,0,1,1.17,1.17Z"/></g></g></svg>