<svg xmlns="http://www.w3.org/2000/svg" xmlns:xlink="http://www.w3.org/1999/xlink" viewBox="0 0 30 30"><defs><style>.cls-1{opacity:0;}.cls-2{fill:#fff;}.cls-3{fill:url(#未命名的渐变_2);}</style><linearGradient id="未命名的渐变_2" x1="4.37" y1="14.69" x2="25.63" y2="14.69" gradientUnits="userSpaceOnUse"><stop offset="0" stop-color="#396ae2"/><stop offset="1" stop-color="#1261ff"/></linearGradient></defs><title>资源 23</title><g id="图层_2" data-name="图层 2"><g id="图层_1-2" data-name="图层 1"><g class="cls-1"><rect class="cls-2" width="30" height="30"/></g><path class="cls-3" d="M25.62,26.28A10.73,10.73,0,0,0,18.73,17a7.92,7.92,0,0,0,3.82-8.86,7.77,7.77,0,0,0-15.1,0A7.93,7.93,0,0,0,11.28,17a10.72,10.72,0,0,0-6.9,9.32.82.82,0,0,0,.22.63A.83.83,0,0,0,6,26.4,9.08,9.08,0,0,1,7,23,9,9,0,0,1,24,26.4a.83.83,0,1,0,1.66-.12ZM8.88,10.05A6.13,6.13,0,1,1,15,16.24a6.15,6.15,0,0,1-6.12-6.19Z"/></g></g></svg>