<svg xmlns="http://www.w3.org/2000/svg" xmlns:xlink="http://www.w3.org/1999/xlink" viewBox="0 0 70 70"><defs><style>.cls-1{fill:none;}.cls-2{fill:url(#未命名的渐变_8);}</style><linearGradient id="未命名的渐变_8" x1="7.81" y1="35" x2="62.19" y2="35" gradientUnits="userSpaceOnUse"><stop offset="0" stop-color="#3b86ff"/><stop offset="1" stop-color="#396ae2"/></linearGradient></defs><title>资源 21</title><g id="图层_2" data-name="图层 2"><g id="图层_1-2" data-name="图层 1"><rect class="cls-1" width="70" height="70"/><path class="cls-2" d="M35,2.06,9.42,10.19a2.3,2.3,0,0,0-1.61,2.2l.13,32,0,.36A22.37,22.37,0,0,0,14.3,55.41c4,4,13.89,9.16,18.1,11.37l1.44.76.48.26a1.12,1.12,0,0,0,1,0l.7-.36c2.46-1.2,15-7.46,19.63-12A22.22,22.22,0,0,0,62,44.7l.16-32.31a2.32,2.32,0,0,0-1.61-2.21ZM58.47,44.45a19.34,19.34,0,0,1-5.27,8.64c-3.78,3.73-14,9.06-17.77,10.94a1.14,1.14,0,0,1-1.06,0h0c-3.81-2-13.89-7.29-17.57-10.93a19.4,19.4,0,0,1-5.28-8.64L11.4,14a1,1,0,0,1,.73-1L34.29,6a2.45,2.45,0,0,1,1.42,0L57.87,13a1,1,0,0,1,.73,1l-.12,30.46Zm-23.08-27a9.44,9.44,0,0,1,6.67,2.73,9.22,9.22,0,0,1,0,13.16,9.37,9.37,0,0,1-4.33,2.39l0,3.91h3.9a2.33,2.33,0,1,1,0,4.66H37.65v6.5a2.37,2.37,0,0,1-4.73,0L33,35.75a9.21,9.21,0,0,1-4.28-15.57,9.42,9.42,0,0,1,6.69-2.71Zm5.67,9.22a5.35,5.35,0,0,0-1.62-3.88,5.61,5.61,0,0,0-7.85,0,5.47,5.47,0,0,0,3.9,9.34,5.64,5.64,0,0,0,5.57-5.46Z"/></g></g></svg>