<svg xmlns="http://www.w3.org/2000/svg" xmlns:xlink="http://www.w3.org/1999/xlink" viewBox="0 0 48 48"><defs><style>.cls-1{fill:none;}.cls-2{fill:url(#未命名的渐变_8);}</style><linearGradient id="未命名的渐变_8" x1="5.36" y1="24" x2="42.64" y2="24" gradientUnits="userSpaceOnUse"><stop offset="0" stop-color="#3b86ff"/><stop offset="1" stop-color="#396ae2"/></linearGradient></defs><title>资源 1</title><g id="图层_2" data-name="图层 2"><g id="图层_1-2" data-name="图层 1"><rect class="cls-1" width="48" height="48"/><path class="cls-2" d="M24,1.41,6.46,7A1.58,1.58,0,0,0,5.36,8.5l.09,21.9,0,.25A15.24,15.24,0,0,0,9.81,38c2.76,2.72,9.52,6.27,12.41,7.79l1,.52.33.18a.74.74,0,0,0,.72,0l.48-.24C26.42,45.43,35,41.14,38.19,38a15.24,15.24,0,0,0,4.34-7.35L42.64,8.5A1.58,1.58,0,0,0,41.54,7ZM40.1,30.48a13.37,13.37,0,0,1-3.62,5.92C33.89,39,26.85,42.62,24.3,43.91a.82.82,0,0,1-.73,0h0c-2.61-1.37-9.53-5-12-7.49A13.43,13.43,0,0,1,7.9,30.48L7.82,9.6a.73.73,0,0,1,.5-.69L23.51,4.08a1.64,1.64,0,0,1,1,0L39.68,8.91a.72.72,0,0,1,.51.69L40.1,30.48ZM24.27,12a6.47,6.47,0,0,1,4.57,1.87,6.33,6.33,0,0,1,0,9,6.5,6.5,0,0,1-3,1.64V27.2h2.68a1.65,1.65,0,0,1,1.14.47,1.61,1.61,0,0,1,.47,1.13,1.63,1.63,0,0,1-1.62,1.6H25.82v4.46a1.62,1.62,0,0,1-3.24,0l0-10.34a6.31,6.31,0,0,1-2.94-10.67A6.44,6.44,0,0,1,24.26,12Zm3.89,6.32a3.74,3.74,0,0,0-1.11-2.66,3.86,3.86,0,0,0-5.39,0,3.72,3.72,0,0,0,0,5.31A3.77,3.77,0,0,0,24.33,22a3.88,3.88,0,0,0,3.83-3.75Z"/></g></g></svg>