<?xml version="1.0" standalone="no"?><!DOCTYPE svg PUBLIC "-//W3C//DTD SVG 1.1//EN" "http://www.w3.org/Graphics/SVG/1.1/DTD/svg11.dtd"><svg t="1574041376476" class="icon" viewBox="0 0 1024 1024" version="1.1" xmlns="http://www.w3.org/2000/svg" p-id="2653" width="32" height="32" xmlns:xlink="http://www.w3.org/1999/xlink"><defs><style type="text/css"></style></defs><path d="M256 213.3h213.3c23.6 0 42.7-19.1 42.7-42.7s-19.1-42.7-42.7-42.7H256c-70.7 0-128 57.3-128 128v512c0 70.7 57.3 128 128 128h213.3c23.6 0 42.7-19.1 42.7-42.7s-19.1-42.7-42.7-42.7H256c-23.6 0-42.7-19.1-42.7-42.7V256c0-23.6 19.1-42.7 42.7-42.7z" fill="#3a79f1" p-id="2654"></path><path d="M883.5 481.8l-181-181c-16.7-16.7-43.7-16.7-60.3 0-16.7 16.7-16.7 43.7 0 60.3l108.2 108.2h-281c-23.6 0-42.7 19.1-42.7 42.7s19.1 42.7 42.7 42.7h281L642.1 662.8c-16.7 16.7-16.7 43.7 0 60.3 16.7 16.7 43.7 16.7 60.3 0l181-181c4.1-4.1 7.2-8.8 9.3-13.8 2.1-5 3.2-10.5 3.2-16.3 0-5.8-1.2-11.3-3.2-16.3-2-5.1-5.1-9.8-9.2-13.9z" fill="#3a79f1" p-id="2655"></path></svg>