<svg xmlns="http://www.w3.org/2000/svg" viewBox="0 0 20 20"><defs><style>.cls-1{opacity:0;}.cls-2{fill:#fff;}.cls-3{fill:#396ae2;}</style></defs><title>文本</title><g id="图层_2" data-name="图层 2"><g id="图层_1-2" data-name="图层 1"><g class="cls-1"><rect class="cls-2" width="20" height="20"/></g><path class="cls-3" d="M15.57,6.92l-3.4-3.47A1.51,1.51,0,0,0,11.1,3H5.5A1.5,1.5,0,0,0,4,4.5v11A1.47,1.47,0,0,0,5.5,17h9A1.47,1.47,0,0,0,16,15.53V8A1.48,1.48,0,0,0,15.57,6.92ZM14.25,7H12.5a.5.5,0,0,1-.5-.51V4.71ZM15,15.53a.47.47,0,0,1-.5.47h-9a.47.47,0,0,1-.5-.47V4.5A.5.5,0,0,1,5.5,4h5a.5.5,0,0,1,.5.5v2A1.51,1.51,0,0,0,12.5,8h2a.49.49,0,0,1,.5.49v7ZM7,8A.5.5,0,0,1,7,7H8.75a.5.5,0,0,1,0,1Zm0,6a.5.5,0,0,1,0-1h6.44a.5.5,0,0,1,0,1Zm0-3a.5.5,0,0,1,0-1h5.94a.5.5,0,0,1,0,1Z"/></g></g></svg>