<svg xmlns="http://www.w3.org/2000/svg" viewBox="0 0 24 24"><defs><style>.cls-1{opacity:0;}.cls-2{fill:#fff;}.cls-3{fill:currentColor;}</style></defs><title>资源 2</title><g id="图层_2" data-name="图层 2"><g id="图层_1-2" data-name="图层 1"><g class="cls-1"><rect class="cls-2" width="24" height="24"/></g><path class="cls-3" d="M12,3.68a2.7,2.7,0,1,1-2.7,2.7A2.7,2.7,0,0,1,12,3.68m0-1.5a4.2,4.2,0,1,0,4.2,4.2A4.2,4.2,0,0,0,12,2.18Z"/><path class="cls-3" d="M12,13a5.53,5.53,0,0,1,5.56,5.49c0,.33-1.73,1.43-5.56,1.43s-5.56-1.1-5.56-1.43A5.53,5.53,0,0,1,12,13m0-1.44a7,7,0,0,0-7,6.93c0,1.91,3.5,2.87,7,2.87s7-1,7-2.87a7,7,0,0,0-7-6.93Z"/></g></g></svg>