<svg xmlns="http://www.w3.org/2000/svg" viewBox="0 0 24 24"><defs><style>.cls-1{opacity:0;}.cls-2{fill:#fff;}.cls-3{fill:#222;fill-rule:evenodd;}</style></defs><title>资源 18</title><g id="图层_2" data-name="图层 2"><g id="图层_1-2" data-name="图层 1"><g class="cls-1"><rect class="cls-2" width="24" height="24"/></g><path class="cls-3" d="M20,15.5a.5.5,0,0,1,.5-.5h0a.5.5,0,0,1,.5.5v5a.5.5,0,0,1-.5.5H3.5a.5.5,0,0,1-.5-.5V3.5A.5.5,0,0,1,3.5,3h5a.5.5,0,0,1,.5.5H9a.5.5,0,0,1-.5.5H4V20H20ZM7.56,12.4a.51.51,0,0,1,.15-.35l8.69-8.7a.51.51,0,0,1,.71,0l3.54,3.54a.51.51,0,0,1,0,.71l-8.71,8.7a.51.51,0,0,1-.35.15h-4Zm4,2.9L17.82,9a.51.51,0,0,0,0-.71L15.7,6.18a.51.51,0,0,0-.71,0L8.7,12.47a.51.51,0,0,0-.15.35V15a.51.51,0,0,0,.5.5h2.13A.51.51,0,0,0,11.53,15.3Zm7.7-7.7h0a.5.5,0,0,0,0-.71L17.11,4.77a.5.5,0,0,0-.71,0h0a.5.5,0,0,0,0,.7L18.53,7.6A.5.5,0,0,0,19.23,7.6Z"/></g></g></svg>