<svg xmlns="http://www.w3.org/2000/svg" viewBox="0 0 24 24"><defs><style>.cls-1{opacity:0;}.cls-2{fill:#fff;}.cls-3{fill:#646974;}</style></defs><title>资源 3</title><g id="图层_2" data-name="图层 2"><g id="图层_1-2" data-name="图层 1"><g class="cls-1"><rect class="cls-2" width="24" height="24"/></g><path class="cls-3" d="M5.24,4H10.1a1,1,0,0,1,1,1v8.29a1,1,0,0,1-1,1H5.24a1,1,0,0,1-1-1V5A1,1,0,0,1,5.24,4Zm.14,1.14v8H10v-8Zm7.86,4.57h6a1,1,0,0,1,1,1V19a1,1,0,0,1-1,1h-6a1,1,0,0,1-1-1V10.71A1,1,0,0,1,13.24,9.71Zm.14,1.15v8H19.1v-8ZM5.24,15.43H10.1a1,1,0,0,1,1,1V19a1,1,0,0,1-1,1H5.24a1,1,0,0,1-1-1V16.43A1,1,0,0,1,5.24,15.43Zm.14,1.14v2.29H10V16.57ZM13.24,4h6a1,1,0,0,1,1,1V7.57a1,1,0,0,1-1,1h-6a1,1,0,0,1-1-1V5A1,1,0,0,1,13.24,4Zm.14,1.14V7.43H19.1V5.14Z"/></g></g></svg>