<svg xmlns="http://www.w3.org/2000/svg" viewBox="0 0 24 24"><defs><style>.cls-1{opacity:0;}.cls-2{fill:#fff;}.cls-3{fill:#646974;}</style></defs><title>资源 4</title><g id="图层_2" data-name="图层 2"><g id="图层_1-2" data-name="图层 1"><g class="cls-1"><rect class="cls-2" width="24" height="24"/></g><path class="cls-3" d="M13.48,12.57h6a1,1,0,0,1,1,1V19a1,1,0,0,1-1,1h-6a1,1,0,0,1-1-1V13.57A1,1,0,0,1,13.48,12.57Zm.15,1.14v5.15h5.71V13.71ZM13.48,4h6a1,1,0,0,1,1,1v5.43a1,1,0,0,1-1,1h-6a1,1,0,0,1-1-1V5A1,1,0,0,1,13.48,4Zm.15,1.14v5.15h5.71V5.14ZM4.52,12.57h6a1,1,0,0,1,1,1V19a1,1,0,0,1-1,1h-6a1,1,0,0,1-1-1V13.57A1,1,0,0,1,4.52,12.57Zm.14,1.14v5.15h5.71V13.71ZM4.52,4h6a1,1,0,0,1,1,1v5.43a1,1,0,0,1-1,1h-6a1,1,0,0,1-1-1V5A1,1,0,0,1,4.52,4Zm.14,1.14v5.15h5.71V5.14Z"/></g></g></svg>