<svg xmlns="http://www.w3.org/2000/svg" viewBox="0 0 24 24"><defs><style>.cls-1{opacity:0;}.cls-2{fill:#fff;}.cls-3{fill:#bcbcbc;}</style></defs><title>资源 19</title><g id="图层_2" data-name="图层 2"><g id="图层_1-2" data-name="图层 1"><g class="cls-1"><rect class="cls-2" width="24" height="24"/></g><path class="cls-3" d="M7.74,6h.5a.25.25,0,0,0,.25-.25V3.27A.25.25,0,0,0,8.24,3h-.5a.25.25,0,0,0-.25.25v2.5A.25.25,0,0,0,7.74,6Z"/><rect class="cls-3" x="9.49" y="4.02" width="5" height="1" rx="0.25"/><path class="cls-3" d="M4.24,8A.25.25,0,0,1,4,7.77V5.27A.25.25,0,0,1,4.24,5h2a.25.25,0,0,0,.25-.25v-.5A.25.25,0,0,0,6.24,4h-3A.25.25,0,0,0,3,4.27V20.52a.5.5,0,0,0,.5.5h17a.5.5,0,0,0,.5-.5V4.27A.25.25,0,0,0,20.74,4h-3a.25.25,0,0,0-.25.25v.5a.25.25,0,0,0,.25.25h2a.25.25,0,0,1,.25.25v2.5a.25.25,0,0,1-.25.25M20,20H4V9H20Z"/><path class="cls-3" d="M15.74,6h.5a.25.25,0,0,0,.25-.25V3.27A.25.25,0,0,0,16.24,3h-.5a.25.25,0,0,0-.25.25v2.5A.25.25,0,0,0,15.74,6Z"/><path class="cls-3" d="M7.49,13h9a.51.51,0,0,0,.5-.5.5.5,0,0,0-.5-.5h-9a.5.5,0,0,0-.5.5A.5.5,0,0,0,7.49,13Z"/><path class="cls-3" d="M7.47,17h9a.5.5,0,0,0,.5-.5.5.5,0,0,0-.5-.5h-9a.5.5,0,0,0-.5.5A.51.51,0,0,0,7.47,17Z"/></g></g></svg>