<svg xmlns="http://www.w3.org/2000/svg" viewBox="0 0 18 18"><defs><style>.cls-1{opacity:0;}.cls-2{fill:#fff;}.cls-3{fill:#69c638;fill-rule:evenodd;}</style></defs><title>资源 15</title><g id="图层_2" data-name="图层 2"><g id="图层_1-2" data-name="图层 1"><g class="cls-1"><rect class="cls-2" width="18" height="18"/></g><path class="cls-3" d="M15,11.62a.38.38,0,0,1,.37-.37h0a.38.38,0,0,1,.37.37v3.76a.38.38,0,0,1-.37.37H2.62a.38.38,0,0,1-.37-.37V2.62a.38.38,0,0,1,.37-.37H6.38a.38.38,0,0,1,.37.37h0A.38.38,0,0,1,6.38,3H3V15H15ZM5.67,9.3A.39.39,0,0,1,5.78,9L12.3,2.52a.37.37,0,0,1,.53,0l2.65,2.65a.37.37,0,0,1,0,.53L9,12.22a.39.39,0,0,1-.27.11h-3Zm3,2.17,4.71-4.71a.37.37,0,0,0,0-.53L11.77,4.64a.37.37,0,0,0-.53,0L6.53,9.35a.39.39,0,0,0-.11.27v1.59a.36.36,0,0,0,.37.37H8.38A.39.39,0,0,0,8.65,11.47ZM14.42,5.7h0a.37.37,0,0,0,0-.53L12.83,3.58a.37.37,0,0,0-.53,0h0a.39.39,0,0,0,0,.53L13.89,5.7A.39.39,0,0,0,14.42,5.7Z"/></g></g></svg>