<svg xmlns="http://www.w3.org/2000/svg" viewBox="0 0 18 18"><defs><style>.cls-1{opacity:0;}.cls-2{fill:#fff;}.cls-3{fill:#396ae2;}</style></defs><title>资源 16</title><g id="图层_2" data-name="图层 2"><g id="图层_1-2" data-name="图层 1"><g class="cls-1"><rect class="cls-2" width="18" height="18"/></g><path class="cls-3" d="M9,2.25A6.75,6.75,0,1,1,2.25,9,6.76,6.76,0,0,1,9,2.25M9,1.5A7.5,7.5,0,1,0,16.5,9,7.5,7.5,0,0,0,9,1.5Zm2.44,7.13H9.38V6.56A.38.38,0,0,0,9,6.19H9a.37.37,0,0,0-.37.37V8.63H6.56A.38.38,0,0,0,6.19,9h0a.38.38,0,0,0,.37.38H8.62v2.06a.37.37,0,0,0,.37.37H9a.37.37,0,0,0,.37-.37V9.38h2.06A.38.38,0,0,0,11.81,9h0A.37.37,0,0,0,11.44,8.63Z"/></g></g></svg>