<svg xmlns="http://www.w3.org/2000/svg" viewBox="0 0 24 24"><defs><style>.cls-1{opacity:0;}.cls-2{fill:#fff;}.cls-3{fill:#646974;fill-rule:evenodd;}</style></defs><title>资源 20</title><g id="图层_2" data-name="图层 2"><g id="图层_1-2" data-name="图层 1"><g class="cls-1"><rect class="cls-2" width="24" height="24"/></g><path class="cls-3" d="M20.65,19.63,15,14a6.75,6.75,0,1,0-1.06,1l5.65,5.65a.48.48,0,0,0,.7,0l.36-.35A.51.51,0,0,0,20.65,19.63ZM6.92,14.18a5.25,5.25,0,0,1-2.3-5.55,4.76,4.76,0,0,1,.7-1.71,5.25,5.25,0,0,1,5.55-2.3,4.76,4.76,0,0,1,1.71.7,5.25,5.25,0,0,1,2.3,5.55,4.76,4.76,0,0,1-.7,1.71,5.25,5.25,0,0,1-5.55,2.3A4.76,4.76,0,0,1,6.92,14.18Z"/></g></g></svg>