<svg xmlns="http://www.w3.org/2000/svg" viewBox="0 0 24 24"><defs><style>.cls-1{opacity:0;}.cls-2{fill:#fff;}.cls-3{fill:#646974;}</style></defs><title>资源 6</title><g id="图层_2" data-name="图层 2"><g id="图层_1-2" data-name="图层 1"><g class="cls-1"><rect class="cls-2" width="24" height="24"/></g><path class="cls-3" d="M7.24,12.53v2.12H9.35a1,1,0,0,1,1.06.9v4.54A1,1,0,0,1,9.35,21H4.06A1,1,0,0,1,3,20.09V15.55a1,1,0,0,1,1.06-.9H6.18V12a.53.53,0,0,1,.53-.53h4.76V9.35H9.35a1,1,0,0,1-1.06-.9V3.91A1,1,0,0,1,9.35,3h5.3a1,1,0,0,1,1.06.91V8.45a1,1,0,0,1-1.06.9H12.53v2.12h4.76a.55.55,0,0,1,.38.16.5.5,0,0,1,.15.37v2.65h2.12a1,1,0,0,1,1.06.9v4.54a1,1,0,0,1-1.06.91H14.65a1,1,0,0,1-1.06-.91V15.55a1,1,0,0,1,1.06-.9h2.11V12.53ZM9.35,4.06V8.29h5.3V4.06ZM4.06,15.55v4.54H9.35V15.55Zm10.59,0v4.54h5.29V15.55Z"/></g></g></svg>