<svg xmlns="http://www.w3.org/2000/svg" viewBox="0 0 24 24"><defs><style>.cls-1{opacity:0;}.cls-2{fill:#fff;}.cls-3{fill:#646974;}</style></defs><title>资源 5</title><g id="图层_2" data-name="图层 2"><g id="图层_1-2" data-name="图层 1"><g class="cls-1"><rect class="cls-2" width="24" height="24"/></g><path class="cls-3" d="M16.47,14.72a1.75,1.75,0,0,0-2,2.1,1.78,1.78,0,0,0,1.41,1.41,1.73,1.73,0,0,0,2-2,1.76,1.76,0,0,0-1.41-1.47Zm-.32,2.55a.83.83,0,1,1,0-1.65.83.83,0,1,1,0,1.65Zm4.67-1.78a.68.68,0,0,0-.58-.58h-.06a1,1,0,0,1-.72-.3,1,1,0,0,1-.3-.72c0-.13.06-.32.06-.38a.79.79,0,0,0-.26-.9L17.82,12H17.5a.69.69,0,0,0-.58.26,1.52,1.52,0,0,1-.77.45c-.26,0-.64-.32-.83-.45a.84.84,0,0,0-.58-.26.36.36,0,0,0-.26.06l-1.21.64a.8.8,0,0,0-.26.9c.11.32.06.19.06.38a1,1,0,0,1-1,1H12a.69.69,0,0,0-.58.58,5.45,5.45,0,0,0-.13,1,2.58,2.58,0,0,0,.13.95A.68.68,0,0,0,12,18h.06a1,1,0,0,1,1,1c0,.13-.06.32-.06.38a.8.8,0,0,0,.26.9l1.14.64a.63.63,0,0,1,.32-.06.72.72,0,0,0,.59-.26c.12-.13.5-.51.82-.51a1.42,1.42,0,0,1,.83.51.84.84,0,0,0,.58.26.61.61,0,0,0,.32-.06L19,20.22a.8.8,0,0,0,.26-.9,1.71,1.71,0,0,1-.05-.38,1,1,0,0,1,1-1h.06a.69.69,0,0,0,.58-.58,4.58,4.58,0,0,0,.13-1,4.53,4.53,0,0,1-.18-.89Zm-.9,1.59A1.9,1.9,0,0,0,18.26,19a1.46,1.46,0,0,0,.13.58l-.83.45-.32-.32a1.83,1.83,0,0,0-1.09-.38,2.11,2.11,0,0,0-1.09.38c-.13.13-.25.19-.32.32L14,19.58A1.61,1.61,0,0,0,14.1,19a1.91,1.91,0,0,0-1.66-1.92c0-.13-.06-.38-.06-.64s.06-.44.06-.63a1.9,1.9,0,0,0,1.66-1.92,1.46,1.46,0,0,0-.12-.58l.83-.45a1.53,1.53,0,0,0,.31.26,1.8,1.8,0,0,0,1,.38,1.87,1.87,0,0,0,1-.38c.13-.13.26-.19.32-.26l.83.45a1.6,1.6,0,0,0-.13.58,1.92,1.92,0,0,0,1.66,1.92c0,.13.06.38.06.64a1.48,1.48,0,0,1,0,.63ZM5.16,19.64a1,1,0,0,1-1-1,6.58,6.58,0,0,1,5.94-6.52h.7a4.52,4.52,0,0,0,2.43-.77l.26-.19A4.55,4.55,0,0,0,10.6,3,4.54,4.54,0,0,0,6.19,7.56a4.62,4.62,0,0,0,1.73,3.59l.32.19-.32.13A7.68,7.68,0,0,0,3,18.62a2.16,2.16,0,0,0,.63,1.54,2.2,2.2,0,0,0,1.55.64H11a.56.56,0,0,0,.51-.58.52.52,0,0,0-.51-.58ZM7.33,7.56A3.4,3.4,0,1,1,10.72,11a3.42,3.42,0,0,1-3.39-3.4Z"/></g></g></svg>