<svg xmlns="http://www.w3.org/2000/svg" viewBox="0 0 18 18"><defs><style>.cls-1{opacity:0;}.cls-2{fill:#fff;}.cls-3{fill:#ff5622;}</style></defs><title>资源 14</title><g id="图层_2" data-name="图层 2"><g id="图层_1-2" data-name="图层 1"><g class="cls-1"><rect class="cls-2" width="18" height="18"/></g><path class="cls-3" d="M15.35,3H11.6a.35.35,0,0,1-.35-.35h0a.38.38,0,0,0-.37-.37H7.12a.38.38,0,0,0-.37.37h0A.35.35,0,0,1,6.4,3H2.65a.38.38,0,0,0-.39.31.38.38,0,0,0,.36.44H3.75V15.38a.38.38,0,0,0,.37.37h9.76a.38.38,0,0,0,.37-.37V3.73h1.13a.38.38,0,0,0,.36-.44A.38.38,0,0,0,15.35,3ZM13.5,15h-9V3.73h9Z"/><rect class="cls-3" x="6.37" y="6.75" width="0.75" height="6" rx="0.37"/><rect class="cls-3" x="8.63" y="6.75" width="0.75" height="6" rx="0.37"/><rect class="cls-3" x="10.88" y="6.75" width="0.75" height="6" rx="0.37"/></g></g></svg>